<?xml version="1.0" encoding="utf-8"?>
<!-- Generator: Adobe Illustrator 23.0.2, SVG Export Plug-In . SVG Version: 6.00 Build 0)  -->
<svg version="1.1" id="Layer_1" xmlns="http://www.w3.org/2000/svg" xmlns:xlink="http://www.w3.org/1999/xlink" x="0px" y="0px"
	 viewBox="0 0 400 713.3" style="enable-background:new 0 0 400 713.3;" xml:space="preserve">
<style type="text/css">
	.st0{fill:#FFFFFF;}
</style>
<g id="m7ZGZ8_1_">
	<g>
		<path class="st0" d="M189.45,257.34c-0.65-0.26-1.3-0.51-1.96-0.77c0.95-9.72,1.76-19.45,2.96-29.13
			c0.26-2.13,1.54-4.43,2.99-6.08c13.74-15.64,27.57-31.2,41.52-46.66c1.43-1.58,3.7-3.05,5.75-3.32
			c9.73-1.31,19.49-2.72,29.28-3.13c23.28-0.97,46.59-1.32,69.87-2.09c4.1-0.14,8.35-0.55,12.23-1.78c4.7-1.49,5.88-5.96,3.19-10.07
			c-1.08-1.65-2.46-3.15-3.9-4.52c-8.13-7.71-18.39-9.64-28.8-8.57c-14.03,1.44-27.96,4.07-41.87,6.56
			c-9.36,1.68-18.61,4-27.91,6.03c-0.34-0.45-0.68-0.89-1.03-1.34c15.68-19.16,31.27-38.39,47.09-57.43
			c5.73-6.89,6.08-9.76-1.55-14.69c-6.64-4.29-14.04-7.51-21.35-10.62c-2.4-1.02-6.61-1.33-8.12,0.06c-1.51,1.4-0.86,5.33-0.84,8.14
			c0.02,3.21,1.45,6.82,0.41,9.56c-2.63,6.96-5.66,13.94-9.66,20.19c-10.66,16.69-21.88,33.01-32.95,49.44
			c-0.78,1.16-1.97,2.6-3.18,2.82c-4.98,0.94-10.04,1.46-15.2,2.15c0-8.62,0.4-16.78-0.14-24.87c-0.36-5.42,1.94-6.97,6.68-8.14
			c10.47-2.58,20.82-5.66,31.1-8.92c3.93-1.25,7.18-3.86,6.51-8.82c-0.54-3.99-4.83-8.05-9.58-8.13
			c-5.27-0.09-10.62,0.41-15.81,1.38c-5.59,1.04-11.02,2.92-16.98,4.57c0.97-16.15,1.11-31.65,6.75-46.4
			c1.49-3.89,1.38-7.71-2.46-10.22c-9.66-6.34-20.42-9.66-31.87-10.34c-4.45-0.27-6.14,2.86-4.43,7.1c0.61,1.52,1.46,3.03,2.5,4.29
			c5,6.04,6.92,13.23,7.66,20.76c0.75,7.62,1.24,15.26,1.56,22.91c0.24,5.77,0.05,11.56,0.05,17.33
			c-5.26,1.54-10.32,3.19-15.46,4.51c-10.79,2.77-21.63,5.32-32.42,8.09c-1.31,0.34-3.39,1.46-3.41,2.26
			c-0.03,1.37,1.06,2.99,2.1,4.11c0.84,0.91,2.24,1.57,3.49,1.78c6.83,1.15,13.69,3,20.54,2.94c8.37-0.06,16.73-1.77,25.26-2.78
			c0,10.87,0,21.61,0,32.34c-3.63,0.66-6.89,1.27-10.17,1.84c-38.82,6.72-77.02,17.31-116.71,18.7c-2.56,0.09-5.07,1.41-8.01,2.27
			c11.35,14.08,21.92,17.71,37.59,13.98c28.15-6.69,56.28-13.51,84.47-20.05c9.6-2.23,19.35-3.79,29.03-5.66
			c-5.97,8.21-12.69,15.12-18.77,22.57c-4.31,5.28-8.46,8.05-15.59,5.21c-4.66-1.85-7.67,1.96-5.98,6.85c0.74,2.15,2,4.12,3.15,6.4
			c-28.99,30.02-62.27,54.84-96.15,79.28c3.85,2.71,4.64,2.85,9.63,0.55c27.91-12.86,54.66-27.63,78.05-47.87
			c4.35-3.76,8.86-7.34,14.08-11.66c0.27,3.33,0.52,5.6,0.62,7.87c0.65,15.14,0.94,30.3,1.98,45.4
			c1.23,17.99,16.31,33.18,34.32,34.6c23.32,1.84,46.61,1.39,69.66-3.14c7.03-1.38,13.93-3.27,19.16-8.84
			c3.67-3.91,5.12-7.9,2.53-13.06c-4.18-8.36-5.56-17.36-5.46-26.66c0.06-5.16,0-10.33-0.19-15.49c-0.06-1.62-0.72-3.22-1.1-4.83
			c-0.46-0.04-0.93-0.08-1.39-0.12c-0.79,1.7-1.65,3.37-2.37,5.1c-3.67,8.73-7.18,17.52-11.02,26.18
			c-2.27,5.12-6.35,8.81-11.77,10.08c-10.81,2.55-21.66,5.21-32.65,6.62c-10.89,1.4-21.89,1.05-32.6-2.54
			c-6.21-2.08-9.96-5.97-10.98-12.27c-1.03-6.39-1.48-12.87-2.46-19.27c-0.52-3.37,0.92-4.58,3.89-5.63
			c14.72-5.24,29.45-10.48,44-16.18c13.93-5.46,27.73-11.3,41.43-17.31c9.03-3.96,9.56-9.39,1.27-14.73
			c-6.54-4.22-13.69-7.48-20.6-11.11c-3.04-1.6-4.89-0.46-6.25,2.58c-1.55,3.45-2.92,7.25-5.37,10
			C231.31,235.49,210.04,245.93,189.45,257.34z M242.57,674.27c0.84,0,1.68,0,2.52,0c1.59-2.62,3.85-5.06,4.63-7.9
			c2.51-9.11,5.35-18.26,6.5-27.58c4.44-35.94,4.34-72.13,4.88-108.28c0.27-17.82,0.67-35.65,1-53.47c0.04-2.24,0.07-4.22,3.09-4.71
			c10.02-1.6,19.98-3.63,30.03-5.02c6.17-0.85,8.29,0.82,8.17,6.97c-0.26,12.8-0.95,25.6-1.95,38.36c-0.45,5.82-3.24,7.79-9.18,7.09
			c-5.6-0.65-11.1-2.08-16.68-2.95c-1.4-0.22-2.94,0.41-4.41,0.64c0.54,1.47,0.72,3.25,1.68,4.35c2.63,3,5.94,5.44,8.34,8.6
			c7.54,9.93,14.85,20.04,22.1,30.19c3.66,5.12,6.08,5.47,9.83,0.38c2.45-3.32,4.43-7.03,6.27-10.74
			c7.25-14.66,8.45-30.64,10.03-46.55c1.23-12.33,0.63-25.1,8.19-36.08c0.74-1.07,0.4-3.8-0.49-4.89c-2.39-2.91-4.95-6.11-8.18-7.78
			c-5.11-2.65-10.88-4.02-16.26-6.19c-5.85-2.37-11.09-1.19-16.81,1.06c-10.59,4.15-21.54,7.38-32.34,10.99
			c-0.48-0.48-0.96-0.96-1.44-1.44c1.3-7.81,2.41-15.65,3.95-23.41c1.07-5.37,0.03-9.5-4.98-12.28c-1.8-1.01-3.44-2.32-6.13-4.17
			c13.88-2.24,26.51-4.11,39.07-6.35c13.43-2.39,26.84-4.9,40.17-7.79c7.02-1.52,8.58-7,3.43-12.04c-2.75-2.69-6.41-4.81-10.04-6.13
			c-6.47-2.35-13.07-1.32-19.59,0.72c-34.62,10.84-69.98,17.74-106.24,19.77c-5.32,0.3-10.66,0.25-15.98,0.46
			c-2.84,0.11-4.36,1.36-2.16,4.04c4.47,5.44,9.28,10.31,16.54,12.23c9.63,2.55,19.22,1.87,28.73,0.16c4.21-0.76,6.58,0.3,7.25,4.2
			c1.45,8.48,2.93,16.98,3.68,25.54c0.99,11.39,0.74,11.67-10.63,13.55c-12.21,2.03-24.67,5.54-35.85-3.71
			c-2.92-2.41-7.07-5.37-10.15-2.01c-1.75,1.91-1.33,6.87-0.39,10.02c5.25,17.59,5.92,35.29-0.14,52.55
			c-3.98,11.36-0.53,20.52,5.04,29.66c3.01,4.94,6,4.86,9-0.01c4.65-7.56,8.52-15.51,8.81-24.63c0.4-12.31,0.62-24.63,0.87-36.95
			c0.07-3.45,0.01-6.91,0.01-9.91c11.65-1.55,22.77-3.02,34.2-4.54c0.12,1.35,0.36,2.63,0.33,3.91
			c-0.94,40.3-2.09,80.59-2.79,120.89c-0.35,19.8-0.1,39.62,0.42,59.42C238.6,666.47,241.15,670.35,242.57,674.27z M135.48,373.74
			c-9.59-0.19-12.21,3.87-8.64,9.66c5.11,8.31,7.67,17.39,8.6,26.86c4.3,43.47,3.99,86.75-6.15,129.57
			c-4.11,17.36-8.35,34.54-18.86,49.54c-11.17,15.95-24.81,29.53-38.88,42.8c-1.41,1.33-1.67,3.87-2.46,5.85
			c1.94-0.22,4.08,0.03,5.78-0.72c20.56-9.04,36.05-24.4,49.73-41.51c18.72-23.4,26.57-51.42,29.49-80.45
			c2.78-27.61,3.11-55.47,4.23-83.23c0.53-13.13-0.16-26.31,4.36-39.01c2.45-6.89,0.91-11.03-5.99-13.51
			C148.92,376.8,140.74,375.15,135.48,373.74z M105.03,470.82c-0.26-0.02-0.52-0.05-0.77-0.07c0-7.33-0.42-14.69,0.09-21.98
			c0.89-12.63-6.3-20.18-15.78-26.29c-1.97-1.27-4.89-1.08-7.36-1.56c-0.42,2.63-1.65,5.43-1.13,7.86
			c6.22,28.69,8.76,57.11-1.81,85.59c-3.17,8.53-2.41,17.85,5.08,25.06c3.88,3.74,6.01,4.03,8.51-0.84
			c3.45-6.72,7.12-13.81,8.28-21.12C102.59,502.04,103.49,486.38,105.03,470.82z"/>
	</g>
</g>
</svg>
